<svg width="24" height="24" viewBox="0 0 24 24" fill="none" xmlns="http://www.w3.org/2000/svg">
<path d="M20.463 3.488C18.217 1.24 15.231 0 12.05 0 5.495 0 .16 5.335.157 11.892c0 2.096.547 4.142 1.588 5.945L.057 24l6.305-1.654a11.882 11.882 0 0 0 5.683 1.448h.005c6.554 0 11.89-5.335 11.893-11.893a11.821 11.821 0 0 0-3.48-8.413Z" fill="#25D366"/>
<path fill-rule="evenodd" clip-rule="evenodd" d="M12.05 21.785h-.004a9.87 9.87 0 0 1-5.031-1.378l-.361-.214-3.741.982.998-3.648-.235-.374a9.86 9.86 0 0 1-1.51-5.26c.001-5.45 4.436-9.884 9.888-9.884 2.64 0 5.122 1.03 6.988 2.898a9.825 9.825 0 0 1 2.893 6.994c-.003 5.45-4.437 9.884-9.885 9.884Zm5.422-7.403c-.297-.15-1.758-.867-2.03-.967-.273-.1-.472-.15-.67.148-.198.298-.767.967-.94 1.165-.174.198-.348.223-.645.074-.297-.148-1.255-.462-2.39-1.474-.883-.788-1.48-1.761-1.653-2.06-.173-.297-.018-.457.13-.605.134-.133.298-.347.446-.52.15-.174.199-.298.298-.497.1-.198.05-.372-.025-.52-.074-.15-.669-1.612-.916-2.208-.242-.579-.487-.5-.669-.51-.173-.008-.371-.01-.57-.01-.198 0-.52.075-.792.372-.272.298-1.04 1.016-1.04 2.479 0 1.462 1.065 2.875 1.213 3.074.148.198 2.096 3.2 5.077 4.487.709.306 1.262.489 1.694.625.712.226 1.36.195 1.87.118.572-.085 1.759-.72 2.007-1.413.248-.694.248-1.29.173-1.413-.074-.124-.272-.198-.57-.347Z" fill="#fff"/>
</svg>
